<svg height="260pt" preserveAspectRatio="xMidYMid meet" viewBox="0 0 260 260" width="260pt" xmlns="http://www.w3.org/2000/svg"><path d="m1315 2530c4-6-5-10-20-10s-24-4-20-10c3-5 0-10-8-10-7 0-14-8-15-17-1-25 18-73 29-73 5 0 9-6 9-14s4-16 10-18c5-1 11-15 12-30 1-16 6-28 11-28s3-8-4-17c-10-12-10-15-1-9 10 6 12-7 9-56-1-35-7-69-11-77-7-10-5-12 5-6s11 5 3-4c-5-6-30-14-55-17-24-3-55-9-69-15-14-5-43-10-64-12-35-2-41 2-55 28-9 17-19 32-23 33-5 2-8 12-8 22s-5 22-11 25c-6 4-8 13-5 21s2 14-2 14-7 18-8 40 2 40 7 40c4 0 6 8 4 18-1 9 3 23 9 31 9 12 8 13-4 6-12-6-13-5-3 5 10 11 8 17-9 32-24 20-32 23-22 7 4-8 0-8-15 0-16 9-21 9-21 0 0-6-7-9-14-6-15 6-76-43-76-60 0-15 43-59 63-67 11-3 21-15 24-26s10-20 15-20 6-4 3-10c-3-5-1-10 5-10s9-4 6-8c-3-5 1-20 8-34 11-20 11-29 2-39-8-9-8-10 2-5 8 5 12-2 12-23 0-16 3-36 6-44 3-10-5-19-23-26-33-14-65-32-86-49-12-10-16-9-22 5-9 20-16 58-15 88 0 31-21 75-36 76-46 4-74 3-74-3 0-5-7-8-17-8-9 0-13-3-10-7 4-3-2-13-14-21-15-10-19-23-17-50 2-30 9-40 35-53 18-9 30-19 26-23-3-3 3-6 14-6s28-9 38-20c14-15 15-20 4-20s-11-2 1-10c13-9 13-10 0-10-8 0-30-14-49-30-38-34-44-36-64-15-8 8-17 11-21 8-3-4-6-1-6 5 0 7-4 11-8 9-5-1-28 17-52 41-23 23-47 42-52 42s-7 4-3 9c3 5-1 15-8 23-7 7-21 30-31 51-17 36-20 48-32 112-8 48-23 58-73 52-37-4-52-12-79-44-47-54-54-63-46-63 3 0 1-6-5-14-8-9-8-16-2-20s8-13 5-20c-7-18 33-46 54-39 8 4 13 2 10-3-4-5 8-10 26-11 35-2 129-47 119-57-4-3-1-6 6-6 6 0 24-12 39-26 15-15 20-23 12-19s-3-4 13-17c15-14 27-30 27-37 0-6 5-11 10-11 6 0 10-6 10-14 0-7 7-19 15-26 17-14 21-45 5-35-5 3-10 1-10-5s-13-1-29 12c-15 13-27 25-25 27 7 8-37 81-46 76-6-4-10-2-10 4 0 5-13 3-30-5-16-9-30-22-30-30s-5-14-11-14-8-7-5-16c3-8 2-12-3-9s-11-7-13-22c-5-41 23-62 78-58 24 2 56 0 71-4 24-6 25-8 9-24-9-9-17-20-16-24 0-4-7-16-15-25-8-10-11-18-7-18s-1-7-11-15c-11-7-24-12-30-9-11 4-63 13-94 16-7 1-13 6-13 12s-4 5-9-2c-7-11-9-11-14 2-4 9-15 16-26 16s-27 10-35 22c-9 12-16 18-16 13s-18 11-40 35-38 46-36 48c3 2-5 13-16 24-18 18-21 18-44 3-13-8-24-12-24-8-1 23-44-65-45-92-1-17-5-37-9-43-4-7-1-12 9-12 9 0 13-4 10-10-12-19 93-25 112-6 3 3 15 1 26-5 15-8 18-8 12 1s-3 9 13 1c11-6 30-11 42-11s35-9 51-21c16-11 29-17 29-12 0 4 5 0 11-9 5-10 17-18 24-18 8 0 15-4 15-9s9-13 20-16c20-6 28-40 11-47-5-1-12-18-14-37-7-39-37-79-37-48 0 10-4 15-10 12-5-3-21 2-35 11-19 12-28 14-38 5-8-6-17-8-20-4-4 3-7 1-7-6s-4-9-10-6c-5 3-12-6-16-20-3-14-9-25-13-25-3 0-7-13-7-30-1-20 2-27 10-23 6 4 5-1-3-10-11-13-11-17-1-17 8 0 10-3 7-6-11-11 13-43 44-60 23-11 29-12 23-2s-4 10 9-1c9-7 17-9 17-3 0 5 9 12 20 15s18 1 14-4c-3-5 0-9 6-9 8 0 8-6 0-20-6-11-7-20-1-20 5 0 6-14 1-35-5-24-5-33 3-28 6 4 8 0 5-9-3-8-3-33 2-55 7-40 6-42-19-39-14 1-32-2-38-7-9-6-15-4-19 8-4 10-9 13-13 6-5-7-16-6-35 4-65 34-103 6-98-70 2-28 8-52 13-53 5-2 7-8 3-13-3-5 2-12 10-15 9-3 14-9 12-13-3-4 8-12 25-18 16-6 29-7 29-2s7 9 16 9c8 0 13 4 9 9-3 5 4 12 15 16s18 11 15 16 8 17 24 27c17 10 28 22 24 25-3 4-1 7 5 7 5 0 17 2 24 5 16 6 38-33 38-65 0-10 3-20 8-22 4-2 16-20 26-41l19-38-33-34c-18-19-37-32-42-29-4 3-8 1-8-4 0-9-50-37-62-34-5 1-8-3-8-9 0-5-5-7-10-4-6 3-10 1-10-6s-3-9-7-6c-3 4-13 1-21-6-13-9-14-9-8 1 4 6 3 12-3 12-5 0-13-5-16-10-3-6-11-10-16-10-6 0-7 5-3 12 5 7 3 8-7 2-8-5-27-9-44-10-59-3-68-4-62-10 3-4 0-13-8-20-15-15-11-65 8-99 6-11 10-23 9-27-1-5 2-8 6-8 5 0 22-11 37-24 16-14 35-22 43-18 10 3 13 1 8-6-10-16 6-15 23 1 11 10 12 9 6-3-4-8 6-1 23 15 16 17 30 32 30 35-1 24 4 30 15 24 9-6 9-5 0 7-10 13-9 20 7 37 11 12 21 25 22 29 2 12 58 66 58 56 0-4 6-1 13 8 13 18 85 59 102 59 6 0 32-22 57-50 26-27 51-50 57-50 16 0 14-19-4-36-17-17-82-47-107-50-41-3-62-46-36-72 7-7 9-12 5-12-5 0 4-11 18-26 14-14 30-22 37-18 6 4 8 3 5-3-10-17 45-23 67-8 13 10 20 29 23 60 1 26 12 59 23 75 11 15 17 30 13 34-24 24 69-18 106-48 8-6 17-10 20-10 7 2 45-11 76-26 11-5 35-12 52-15 31-6 32-8 27-43-3-20-10-42-15-48s-6-14-2-17c3-4 1-7-5-7-7 0-12-7-12-16 0-23-69-119-70-97 0 4-5 0-11-10-5-9-16-17-22-17-7 0-19-9-27-19-7-11-17-18-21-15-4 2-6-2-4-8 10-43 20-58 46-68 16-7 29-17 29-22s5-6 10-3c6 3 10 1 10-5s5-8 10-5c6 4 18 1 27-7 10-7 14-8 10-1-5 7 4 14 24 18 21 5 27 10 19 15-9 5-9 9-1 14 11 7 9 46-3 65-4 5-2 12 4 16s7 12 1 22c-4 9-5 30-1 47 13 53 60 145 83 161 12 8 17 15 12 16-6 0-1 4 10 8 11 5 28 4 38-1 11-6 17-5 17 3 0 7 5 8 13 3 11-9 26-10 52-4 6 1 31 2 57 2 26 1 45 4 43 9-6 9 16 6 34-5 9-6 12-5 7 2-3 6-2 13 4 17s10-6 10-24c0-16-5-31-11-33-5-2-11-11-12-20-2-9-9-24-17-34-13-16-13-17 0-9 12 6 13 5 3-6-18-19-16-30 12-63 37-43 124-44 172 0 6 7 9 14 6 18-4 3-2 6 4 6 13 0 15 59 2 74-41 48-49 61-49 73 0 7-6 13-12 13-10 0-9 3 1 9 11 7 11 9 0 14-8 3 1 6 19 6 17 1 32 5 32 10s7 12 16 15 12 2 8-5c-3-6 12 1 34 15s43 22 46 19c3-4 6 0 6 7s3 10 7 7c3-4 12-2 19 4 14 12 25 5 74-43 16-16 33-28 39-28s10-3 9-8c-3-14 14-42 23-36 5 3 9 2 8-3-3-13 12-63 20-63 3 0 7-24 9-52 4-63 24-91 55-79 12 5 26 9 30 9 16 0 67 52 67 68 0 8 4 13 9 10 13-9 7 19-8 38-7 9-20 16-27 16-8 0-14 4-14 8s-9 8-20 9-26 8-34 15-30 26-50 42c-19 16-33 33-30 37 3 5 0 9-6 9-7 0-9 7-6 16 3 8 2 13-3 10-8-6-23 19-41 67-5 15-6 27-1 27s23 13 41 29c29 24 37 27 57 18 13-5 23-15 23-20s9-18 21-28c18-15 32-51 43-109 8-41 19-50 52-48 18 1 31 5 28 9-2 4 8 10 21 13 14 4 23 11 20 16-4 6 0 12 7 15 35 14 5 97-32 90-11-2-20-1-20 3s-9 8-20 9c-26 2-100 54-100 71 0 6-5 12-10 12-16 0-7 24 15 36 12 8 27 9 42 3 13-5 23-5 23-1s5 0 10-8 15-15 22-15c27-2 68-18 68-27 0-5 5-6 10-3 6 3 13-1 16-9 3-9 12-16 20-16s14-7 14-16c0-8 5-12 10-9 6 3 10 1 10-4 0-6 7-11 16-11 8 0 12-5 9-10-3-6 1-13 9-16 9-3 16-12 16-20s5-14 11-14c5 0 8-4 5-9-3-4 1-17 9-27s15-27 15-37c0-11 9-21 20-24s20-9 20-13c0-16 71 18 87 41 9 13 21 27 25 30 5 3 10 16 11 27 1 12 5 22 10 22 11 0 0 70-14 86-6 7-17 10-25 7s-14 0-14 7c0 6-5 8-12 4-17-11-58-11-58-1 0 5-7 4-15-3s-15-8-15-2c0 5-12 10-27 10s-29 5-31 11-12 11-21 11c-10 0-30 9-45 21-14 11-26 18-26 16 0-3-27 22-60 54-55 54-75 80-50 64 6-3 10 1 10 9 0 9 5 16 11 16 5 0 7 5 4 10-3 6-2 10 3 10s12 9 15 20c8 30 31 24 62-14 22-27 33-33 54-30 14 3 33 13 42 24 9 10 18 18 20 17s3 0 2 2c-1 1 2 14 7 27 7 17 6 24-3 24-8 0-9 2-1 8 17 11 8 44-16 62-22 17-54 20-66 7-15-15-23-6-22 23 1 17 5 33 10 36 4 3 6 10 3 15-4 5-1 9 4 9 6 0 10 3 10 8-1 4 0 9 1 12 3 9 10 54 13 82 3 38 22 56 46 41 14-9 21-9 30 0 6 6 11 7 11 2 0-6 14-11 32-12 17-1 35-8 40-15 4-7 8-10 8-6s16-4 37-17c45-31 79-28 98 9 33 63 4 158-50 164-15 2-31 0-34-5-12-17-69-53-85-53-9 0-16-4-16-10 0-5-5-10-11-10-5 0-8 4-5 8 2 4-4 8-14 8s-16-4-14-8c8-13-11-9-25 5-11 10-13 10-7 0 4-8 1-13-7-13-11 0-15 18-15 83 0 45 2 76 4 70 9-20 53-15 77 8 12 12 15 18 7 14-12-7-13-6-4 6 11 15 11 43 0 74-14 37-21 46-49 63-23 14-31 15-47 4-26-16-36-10-42 23-4 21 0 29 24 41 16 8 34 12 40 8 7-4 8-3 4 4s-4 12 1 13c30 2 58 11 70 20 10 9 13 8 13-2 0-9 3-10 8-4 4 6 20 11 35 13 22 2 27 0 21-10s-4-10 9 1c13 10 17 10 17 1 0-10 3-10 14-1 10 8 16 9 21 1 11-18 51-11 75 15 13 14 20 28 17 32-4 3-1 13 6 21 9 13 9 14 0 8-9-5-13-1-14 11-1 35-8 56-19 63-7 4-12 11-13 16-1 15-51 59-71 62-12 2-16-1-10-9 4-7 3-10-4-6-5 4-17 4-25 1-17-6-48-49-51-69-1-7-21-32-46-56-24-24-40-37-36-29 5 9 2 8-7-2-8-10-22-18-31-18s-16-4-16-10c0-5-3-9-7-8-5 1-18-3-31-10-19-11-23-10-28 3-3 8-10 12-15 9s-9 2-9 10-7 22-16 30c-8 9-13 16-11 16 3 0-11 17-29 37-26 28-34 46-34 75 0 21-4 38-10 38-5 0-10 6-10 13 0 6-18 21-39 33-34 19-42 20-70 8-17-7-31-9-31-4 0 6-7 10-15 10s-24 9-34 19c-11 11-22 17-25 14s-4 5-3 18c0 13 4 26 7 29s14 23 25 45c10 22 28 50 41 61 12 12 20 25 17 28-4 3 0 6 9 6 8 0 23 9 32 19 10 11 24 17 32 14s14 0 14 5c0 6 9 14 20 17 12 4 20 15 20 29 0 25-56 90-70 81-5-3-11-1-15 5-8 13-65 13-65-1 0-5-4-8-8-5-10 6-11-6-13-78-1-46-19-105-40-130-48-56-57-71-52-79 3-6 1-7-6-3-6 4-14 0-17-8-3-9-10-13-15-10s-9 0-9-5c0-15-17-14-45 5-19 12-22 18-12 29 7 7 15 11 18 9 4-2 9 6 12 17 3 12 10 18 16 14 6-3 11-1 11 5s11 15 25 20c65 25 9 110-72 110-45 0-73-26-52-47 8-8 8-13 0-17-6-4-7-15-1-30 4-13 4-29 0-37-6-8-4-16 3-21 9-6 9-8 0-8-7 0-13-6-13-14 0-7-11-16-25-18-14-3-25-2-25 2s-11 6-25 5c-14-2-27 1-31 6-3 5-11 6-17 2-18-11-38-12-31-2 3 5 1 9-5 9-9 0-8 135 2 178 7 28 48 102 57 102 15 0 3 48-18 70-12 13-22 21-22 18 0-4-13-3-29 2-19 5-33 4-40-3-8-8-11-8-11 1 0 7-5 12-11 12-5 0-7-4-4-10z" transform="matrix(.1 0 0 -.1 0 260)"/></svg>